<svg width="48" height="42" viewBox="0 0 48 42" fill="none" xmlns="http://www.w3.org/2000/svg">
<path d="M24.474 13.3238L22.0941 15.3401L16.7025 8.97607C16.2975 8.49795 16.3567 7.78207 16.8348 7.37707L17.4834 6.82751C17.9616 6.42251 18.6774 6.48166 19.0824 6.95979L24.474 13.3238Z" fill="#14C700"/>
<path d="M37.4805 13.3238L39.8604 15.3401L45.252 8.97607C45.657 8.49795 45.5978 7.78207 45.1197 7.37707L44.471 6.82751C43.9929 6.42251 43.277 6.48166 42.872 6.95979L37.4805 13.3238Z" fill="#14C700"/>
<path d="M32.5015 3.44531H29.4531V9.89419H32.5015V3.44531Z" fill="#EEF9ED"/>
<path d="M30.9792 41.3881C40.3803 41.3881 48.0014 33.767 48.0014 24.3659C48.0014 14.9648 40.3803 7.34375 30.9792 7.34375C21.5781 7.34375 13.957 14.9648 13.957 24.3659C13.957 33.767 21.5781 41.3881 30.9792 41.3881Z" fill="#3D6687"/>
<path d="M30.9762 7.34375C30.0767 7.34375 29.1938 7.41406 28.332 7.5485C36.4773 8.81891 42.71 15.8642 42.71 24.3658C42.71 32.8675 36.4773 39.9128 28.332 41.1832C29.1938 41.3176 30.0767 41.3879 30.9762 41.3879C40.3772 41.388 47.9982 33.7668 47.9982 24.3659C47.9982 14.9651 40.3772 7.34375 30.9762 7.34375Z" fill="#0C5177"/>
<path d="M30.978 38.8427C38.9718 38.8427 45.452 32.3624 45.452 24.3686C45.452 16.3748 38.9718 9.89453 30.978 9.89453C22.9842 9.89453 16.5039 16.3748 16.5039 24.3686C16.5039 32.3624 22.9842 38.8427 30.978 38.8427Z" fill="#F1FFF0"/>
<path d="M30.9772 9.89453C30.0668 9.89453 29.1763 9.97947 28.3125 10.1403C35.0335 11.3912 40.1223 17.2854 40.1223 24.369C40.1223 31.4526 35.0335 37.3469 28.3125 38.5977C29.1763 38.7585 30.0668 38.8434 30.9772 38.8434C38.9711 38.8434 45.4516 32.363 45.4516 24.369C45.4516 16.3749 38.9711 9.89453 30.9772 9.89453Z" fill="#EEF9ED"/>
<path d="M35.2297 4.36209H26.7257C26.2904 4.36209 25.9375 4.00922 25.9375 3.57394V1.39753C25.9375 0.96225 26.2904 0.609375 26.7257 0.609375H35.2297C35.665 0.609375 36.0179 0.96225 36.0179 1.39753V3.57413C36.0179 4.00931 35.665 4.36209 35.2297 4.36209Z" fill="#14C700"/>
<path d="M30.9759 26.5807C32.1988 26.5807 33.1901 25.5894 33.1901 24.3665C33.1901 23.1437 32.1988 22.1523 30.9759 22.1523C29.753 22.1523 28.7617 23.1437 28.7617 24.3665C28.7617 25.5894 29.753 26.5807 30.9759 26.5807Z" fill="#3D6687"/>
<path d="M31.2843 12.6329C31.1161 12.6286 30.9766 12.7625 30.9766 12.9308V18.6583C30.9766 18.884 31.1466 19.0751 31.3712 19.0971C33.9466 19.3492 35.994 21.3966 36.2461 23.9719C36.2681 24.1965 36.4592 24.3666 36.6848 24.3666H42.4124C42.5807 24.3666 42.7145 24.2271 42.7102 24.0588C42.5496 17.8208 37.5223 12.7935 31.2843 12.6329Z" fill="#14C700"/>
<path d="M30.2578 34.3472V36.1026C30.2578 36.5015 30.5811 36.8248 30.98 36.8248C31.3789 36.8248 31.7021 36.5015 31.7021 36.1026V34.3472C31.7021 33.9483 31.3789 33.625 30.98 33.625C30.5811 33.625 30.2578 33.9483 30.2578 34.3472Z" fill="#14C700"/>
<path d="M21.7192 24.3667C21.7192 23.9678 21.396 23.6445 20.9971 23.6445H19.2417C18.8428 23.6445 18.5195 23.9678 18.5195 24.3667C18.5195 24.7656 18.8428 25.0888 19.2417 25.0888H20.9971C21.3959 25.0888 21.7192 24.7656 21.7192 24.3667Z" fill="#14C700"/>
<path d="M15.1913 14.8333H9.43228C9.03816 14.8333 8.71875 14.5139 8.71875 14.1198C8.71875 13.7257 9.03816 13.4062 9.43228 13.4062H15.1913C15.5855 13.4062 15.9049 13.7257 15.9049 14.1198C15.9049 14.5139 15.5855 14.8333 15.1913 14.8333Z" fill="#0C5177"/>
<path d="M12.3136 23.8412H9.11978C8.72566 23.8412 8.40625 23.5218 8.40625 23.1277C8.40625 22.7336 8.72566 22.4141 9.11978 22.4141H12.3136C12.7077 22.4141 13.0271 22.7335 13.0271 23.1277C13.0271 23.5219 12.7077 23.8412 12.3136 23.8412Z" fill="#0C5177"/>
<path d="M13.9557 32.849H11.1706C10.7764 32.849 10.457 32.5296 10.457 32.1354C10.457 31.7412 10.7764 31.4219 11.1706 31.4219H13.9557C14.3498 31.4219 14.6692 31.7413 14.6692 32.1354C14.6692 32.5295 14.3498 32.849 13.9557 32.849Z" fill="#0C5177"/>
<path d="M12.9957 19.3372H4.36197C3.96784 19.3372 3.64844 19.0178 3.64844 18.6237C3.64844 18.2296 3.96784 17.9102 4.36197 17.9102H12.9956C13.3897 17.9102 13.7091 18.2296 13.7091 18.6237C13.7091 19.0178 13.3898 19.3372 12.9957 19.3372Z" fill="#0C5177"/>
<path d="M12.5238 28.3451H0.713531C0.319406 28.3451 0 28.0257 0 27.6316C0 27.2375 0.319406 26.918 0.713531 26.918H12.5237C12.9178 26.918 13.2372 27.2374 13.2372 27.6316C13.2372 28.0258 12.9179 28.3451 12.5238 28.3451Z" fill="#0C5177"/>
<path d="M16.503 36.9077H7.52994C7.13581 36.9077 6.81641 36.5883 6.81641 36.1941C6.81641 35.7999 7.13581 35.4805 7.52994 35.4805H16.503C16.8972 35.4805 17.2166 35.7999 17.2166 36.1941C17.2166 36.5883 16.8972 36.9077 16.503 36.9077Z" fill="#0C5177"/>
</svg>
