<svg width="16" height="12" viewBox="0 0 16 12" fill="none" xmlns="http://www.w3.org/2000/svg">
<path d="M15.1831 2.25275C15.0102 1.61014 14.5036 1.10358 13.8611 0.930542C12.6873 0.609375 7.992 0.609375 7.992 0.609375C7.992 0.609375 3.2969 0.609375 2.12311 0.918365C1.49295 1.09122 0.973938 1.61023 0.801086 2.25275C0.492188 3.42645 0.492188 5.86056 0.492188 5.86056C0.492188 5.86056 0.492188 8.30695 0.801086 9.46838C0.974121 10.1109 1.48059 10.6175 2.1232 10.7905C3.30926 11.1118 7.99218 11.1118 7.99218 11.1118C7.99218 11.1118 12.6873 11.1118 13.8611 10.8028C14.5037 10.6298 15.0102 10.1233 15.1833 9.48074C15.4921 8.30695 15.4921 5.87292 15.4921 5.87292C15.4921 5.87292 15.5044 3.42645 15.1831 2.25275ZM6.49713 8.10928V3.61185L10.4015 5.86056L6.49713 8.10928Z" fill="white"/>
</svg>
